<svg xmlns="http://www.w3.org/2000/svg" viewBox="0 0 11.99149 12.79483"><defs><style>.beb5cb15-ba44-47e0-ad83-fc690b4c2824{fill:#fff;}.faf76d7b-4e4f-440d-bd8f-1c2e1df89286{fill:#7085c2;}</style></defs><g id="f8cebf71-4e37-4122-b2ce-b7aebdd8a643" data-name="Layer 2"><g id="a57eb27f-6a39-49f3-94c5-ef41216cb9fb" data-name="Layer 1"><path class="beb5cb15-ba44-47e0-ad83-fc690b4c2824" d="M6.43827,12.55627A6.20037,6.20037,0,0,1,4.96679.3328a6.676,6.676,0,0,0,6.00212,9.60047c.18187,0,.3649-.00768.54793-.02259A6.23031,6.23031,0,0,1,6.43827,12.55627Z"/><path class="faf76d7b-4e4f-440d-bd8f-1c2e1df89286" d="M4.54327.70139a6.91493,6.91493,0,0,0,6.42564,9.47044l.04735-.00016A5.95951,5.95951,0,0,1,.47691,6.35656,5.92929,5.92929,0,0,1,4.54327.70139M5.41569,0a6.43823,6.43823,0,1,0,6.5758,9.61322,6.48126,6.48126,0,0,1-1.02258.08171A6.4374,6.4374,0,0,1,5.41569,0Z"/></g></g></svg>