<svg xmlns="http://www.w3.org/2000/svg" viewBox="0 0 24.13043 24.13043"><defs><style>.bd62ec1d-16b4-498c-a2f3-fc9ab65033fd{fill:#fff;}.b30bc732-88c6-4407-92cc-be46bdac7f9e{fill:#7085c2;}</style></defs><g id="b81803d9-dbb2-4c38-bc59-ab11619df506" data-name="Layer 2"><g id="a8733cb4-bab2-4df8-b7fa-a2396acc5d68" data-name="Layer 1"><path class="bd62ec1d-16b4-498c-a2f3-fc9ab65033fd" d="M11.93076,18.16411a6.09891,6.09891,0,1,1,6.099-6.09885A6.10591,6.10591,0,0,1,11.93076,18.16411Z"/><path class="b30bc732-88c6-4407-92cc-be46bdac7f9e" d="M11.93076,6.325a5.74021,5.74021,0,1,1-5.74021,5.74021A5.74671,5.74671,0,0,1,11.93076,6.325m0-.71753a6.45774,6.45774,0,1,0,6.45773,6.45774,6.45774,6.45774,0,0,0-6.45773-6.45774Z"/><circle class="b30bc732-88c6-4407-92cc-be46bdac7f9e" cx="2.46564" cy="17.65504" r="0.9567"/><circle class="b30bc732-88c6-4407-92cc-be46bdac7f9e" cx="0.95683" cy="12.10635" r="0.9567"/><circle class="b30bc732-88c6-4407-92cc-be46bdac7f9e" cx="2.4245" cy="6.54665" r="0.9567"/><circle class="b30bc732-88c6-4407-92cc-be46bdac7f9e" cx="6.4754" cy="2.46564" r="0.9567"/><circle class="b30bc732-88c6-4407-92cc-be46bdac7f9e" cx="12.02408" cy="0.95683" r="0.9567"/><circle class="b30bc732-88c6-4407-92cc-be46bdac7f9e" cx="17.58379" cy="2.4245" r="0.9567"/><circle class="b30bc732-88c6-4407-92cc-be46bdac7f9e" cx="21.6648" cy="6.4754" r="0.9567"/><circle class="b30bc732-88c6-4407-92cc-be46bdac7f9e" cx="23.17361" cy="12.02408" r="0.9567"/><circle class="b30bc732-88c6-4407-92cc-be46bdac7f9e" cx="21.70593" cy="17.58379" r="0.9567"/><circle class="b30bc732-88c6-4407-92cc-be46bdac7f9e" cx="17.65504" cy="21.6648" r="0.9567"/><circle class="b30bc732-88c6-4407-92cc-be46bdac7f9e" cx="12.10635" cy="23.17361" r="0.9567"/><circle class="b30bc732-88c6-4407-92cc-be46bdac7f9e" cx="6.54665" cy="21.70593" r="0.9567"/></g></g></svg>